<svg width="2618" height="579" viewBox="0 0 2618 579" fill="none" xmlns="http://www.w3.org/2000/svg">
<path d="M2617.54 576H3.03906V0C3.03906 0 187.539 467.5 369.539 414.5C619.539 387.5 715.051 369.453 954.039 490.5H2617.54V576Z" fill="#FCCBA0"/>
<path d="M952.039 578.974C951.481 578.973 950.925 578.969 950.37 578.963C840.041 578.703 47.1696 577.024 2.00804 578.655C2.00504 578.867 2.0035 578.974 2.0035 578.974C-0.716117 578.856 -0.620594 578.75 2.00804 578.655C2.15504 568.276 5.8087 307.97 3.34211 247.776C1.36278 244.176 0.589873 240.382 1.53906 236.5C2.14982 234.002 2.63485 235.984 3.0141 241.513C6.85981 249.266 17.7548 260.969 30.1497 268.37C39.8077 272.654 49.5076 275.161 55.0524 275.029C56.412 274.816 57.7436 274.477 59.0391 274C99.5396 264.87 138.153 265.737 180.433 318.5C220.781 374.899 251.016 387.936 326.039 424.5L327.815 424.197C427.141 407.233 586.878 379.952 686.539 400.5C786.381 421.084 817.283 577.385 950.37 578.963C966.02 579 967.937 579.008 952.039 578.974Z" fill="#F2845F"/>
<path d="M326.039 431C462.316 469.811 576.162 426.243 685.039 402C602.209 359.476 481.039 400 379.539 385.5C278.039 371 194.039 321 176.039 311C174.958 312.707 209.696 380.452 326.039 431Z" fill="#F6A892"/>
</svg>
