<svg width="2615" height="581" viewBox="0 0 2615 581" fill="none" xmlns="http://www.w3.org/2000/svg">
<path d="M2325 96.5C2204.19 35.5728 2156 96.5 2156 96.5C2156 96.5 2171 95.625 2252 126C2333 156.375 2366 252 2366 252C2366 252 2406.05 357.375 2464 402C2521.95 446.625 2445.81 157.427 2325 96.5Z" fill="#F6A892"/>
<path d="M2614 -0.000366211V581C2614 581 2432 551 2432 292.008C2432 33.0166 2122.32 92.7317 2122.32 92.7317C2122.32 92.7317 2046.5 138 1918.5 138C1790.5 138 1687.5 92.7317 1687.5 92.7317C1559.35 91.6802 0.00012207 92.7317 0.00012207 92.7317V-0.000366211H1964H2614Z" fill="#FCCBA0"/>
<path d="M2614.47 0H2023C2023 97.5 2100.5 97.5 2100.5 97.5C2100.5 97.5 2158 94.5 2263.5 97.5C2369 100.5 2417 198 2424.82 290.095C2426.93 314.911 2440.5 382.5 2440.5 382.5C2440.5 382.5 2454 421.215 2529.91 421.215C2605.81 421.215 2614.47 463 2614.47 463V0Z" fill="#F2845F"/>
</svg>
